HIERARCHY
ROOT Hips
{
	OFFSET 0.00000 0.00000 0.00000
	CHANNELS 6 Xposition Yposition Zposition Zrotation Yrotation Xrotation 
	JOINT LHipJoint
	{
		OFFSET 0 0 0
		CHANNELS 3 Zrotation Yrotation Xrotation
		JOINT LeftHip
		{
			OFFSET 1.59801 -1.77853 0.57028
			CHANNELS 3 Zrotation Yrotation Xrotation
			JOINT LeftKnee
			{
				OFFSET 2.39439 -6.57854 0.00000
				CHANNELS 3 Zrotation Yrotation Xrotation
				JOINT LeftAnkle
				{
					OFFSET 2.69334 -7.39989 0.00000
					CHANNELS 3 Zrotation Yrotation Xrotation
					JOINT LeftToe
					{
						OFFSET 0.09553 -0.26245 1.73747
						CHANNELS 3 Zrotation Yrotation Xrotation
						End Site
						{
							OFFSET 0.00000 -0.00000 0.89391
						}
					}
				}
			}
		}
	}
	JOINT RHipJoint
	{
		OFFSET 0 0 0
		CHANNELS 3 Zrotation Yrotation Xrotation
		JOINT RightHip
		{
			OFFSET -1.54704 -1.77852 0.57028
			CHANNELS 3 Zrotation Yrotation Xrotation
			JOINT RightKnee
			{
				OFFSET -2.40286 -6.60180 0.00000
				CHANNELS 3 Zrotation Yrotation Xrotation
				JOINT RightAnkle
				{
					OFFSET -2.63873 -7.24984 0.00000
					CHANNELS 3 Zrotation Yrotation Xrotation
					JOINT RightToe
					{
						OFFSET -0.15631 -0.42945 1.84436
						CHANNELS 3 Zrotation Yrotation Xrotation
						End Site
						{
							OFFSET -0.00000 -0.00000 0.95734
						}
					}
				}
			}
		}
	}
	JOINT lowerback
	{
		OFFSET 0 0 0
		CHANNELS 3 Zrotation Yrotation Xrotation
		JOINT Chest
		{
			OFFSET -0.00436 1.89866 -0.04018
			CHANNELS 3 Zrotation Yrotation Xrotation
			JOINT Chest2
			{
				OFFSET 0.02031 1.88273 0.09634
				CHANNELS 3 Zrotation Yrotation Xrotation
				JOINT lowerneck
				{
					OFFSET 0 0 0
					CHANNELS 3 Zrotation Yrotation Xrotation
					JOINT Neck
					{
						OFFSET -0.13105 1.89371 0.23083
						CHANNELS 3 Zrotation Yrotation Xrotation
						JOINT Head
						{
							OFFSET 0.17062 1.83990 -0.54062
							CHANNELS 3 Zrotation Yrotation Xrotation
							End Site
							{
								OFFSET 0.04576 1.94782 -0.21839
							}
						}
					}
				}
				JOINT LeftCollar
				{
					OFFSET 0 0 0
					CHANNELS 3 Zrotation Yrotation Xrotation
					JOINT LeftShoulder
					{
						OFFSET 3.12424 1.09204 0.22226
CHANNELS 3 Zrotation Xrotation Yrotation
						JOINT LeftElbow
						{
OFFSET 0 -5.292770 0.000000
CHANNELS 3 Zrotation Xrotation Yrotation
							JOINT LeftWrist
							{
OFFSET 0 -2.852260 0.000000
CHANNELS 3 Zrotation Xrotation Yrotation
								JOINT lhand
								{
									OFFSET 0 0 0
CHANNELS 3 Zrotation Xrotation Yrotation
									JOINT LFingers
									{
OFFSET 0 -0.602100 0.000000
CHANNELS 3 Zrotation Xrotation Yrotation
										End Site
										{
OFFSET 0 -0.485430 0.000000
										}
									}
								}
								JOINT LThumb
								{
OFFSET 0 0.000000 0.000000
CHANNELS 3 Zrotation Xrotation Yrotation
									End Site
									{
OFFSET 0 -0.492840 0.492840
									}
								}
							}
						}
					}
				}
				JOINT RightCollar
				{
					OFFSET 0 0 0
					CHANNELS 3 Zrotation Yrotation Xrotation
					JOINT RightShoulder
					{
						OFFSET -2.91709 1.01504 0.30199
CHANNELS 3 Zrotation Xrotation Yrotation
						JOINT RightElbow
						{
OFFSET 0 -5.133040 0.000000
CHANNELS 3 Zrotation Xrotation Yrotation
							JOINT RightWrist
							{
OFFSET 0 -2.743050 0.000000
CHANNELS 3 Zrotation Xrotation Yrotation
								JOINT rhand
								{
									OFFSET 0 0 0
CHANNELS 3 Zrotation Xrotation Yrotation
									JOINT RFingers
									{
OFFSET 0 -0.767980 0.000000
CHANNELS 3 Zrotation Xrotation Yrotation
										End Site
										{
OFFSET 0 -0.619160 0.000000
										}
									}
								}
								JOINT RThumb
								{
OFFSET 0 0.000000 0.000000
CHANNELS 3 Zrotation Xrotation Yrotation
									End Site
									{
OFFSET 0 -0.628620 0.628620
									}
								}
							}
						}
					}
				}
			}
		}
	}
}
MOTION
Frames: 8
Frame Time: 0.008333333333333333
0.195300 17.475600 0.510700 -1.660900 3.891800 5.250600 0.000000 0.000000 0.000000 -16.988000 -23.407800 1.194700 0.646400 5.143200 14.317500 0.343800 8.645100 -17.417800 1.037400 -6.477900 -18.177400 0.000000 0.000000 0.000000 19.586500 6.439200 5.351200 0.000000 0.000000 -0.000000 -0.059200 -6.196600 -10.268900 -0.423500 4.176700 -11.574300 -1.406000 -0.104200 -4.394000 2.102400 -0.081800 -3.423600 2.947700 0.008400 -1.050500 -18.512500 -11.559000 -10.630500 17.443400 -17.143200 22.114900 6.927600 -7.745000 12.286900 0.000000 0.000000 0.000000 -1.742300 2.411400 -34.530700 8.319700 -14.069800 1.028500 10.601200 28.396300 -23.050600 0.000000 0.000000 0.000000 -7.125000 0.000000 0.000000 -18.893200 52.390800 3.539900 0.000000 0.000000 0.000000 -2.418900 4.124600 28.440200 -11.970000 -19.759600 -2.092100 -11.020400 27.901600 -11.764400 0.000000 0.000000 0.000000 7.125000 0.000000 -0.000000 11.269000 18.131700 7.346100
0.202795 17.480676 0.501918 -1.714611 3.845004 5.260830 0.000000 0.000000 0.000000 -16.964372 -23.433690 1.099878 0.659803 5.195340 14.466567 0.328273 8.835371 -17.424862 1.240355 -7.060357 -19.894989 0.000000 0.000000 0.000000 19.620577 6.485681 5.373274 0.000000 0.000000 0.000000 -0.067318 -6.118709 -10.350327 -0.350058 3.801257 -10.518276 -1.221026 -0.114212 -4.335864 2.099038 -0.101104 -3.426783 2.839337 -0.004254 -1.084934 -18.406807 -11.549516 -10.583574 17.322037 -17.109601 22.036229 6.866390 -7.735664 12.213109 0.000000 0.000000 0.000000 -1.840235 2.303855 -33.501174 8.159878 -13.811628 0.989958 10.800290 28.990775 -22.116522 0.000000 0.000000 0.000000 -7.125000 0.000000 0.000000 -18.244931 51.535479 3.021075 0.000000 0.000000 0.000000 -2.365017 4.186441 28.866017 -11.975005 -19.767157 -2.093835 -10.528061 27.651668 -11.785025 0.000000 0.000000 0.000000 7.125000 0.000000 0.000000 11.609339 18.137219 7.575876
0.203764 17.479868 0.492469 -1.607107 3.778520 5.276442 0.000000 0.000000 0.000000 -17.075006 -23.424917 1.198867 0.632099 5.086928 14.156780 0.295400 8.952941 -17.143580 1.168564 -6.859877 -19.301707 0.000000 0.000000 0.000000 19.487820 6.551622 5.354859 0.000000 0.000000 0.000000 -0.064439 -6.132897 -10.306030 -0.405543 4.088484 -11.325670 -1.330867 -0.153521 -4.085366 2.121897 -0.149543 -3.557187 2.923994 -0.021810 -1.356212 -18.568594 -11.475756 -10.385942 17.395428 -17.006661 21.943168 6.949195 -7.709346 12.139175 0.000000 0.000000 0.000000 -1.976571 2.435697 -32.697748 8.063784 -13.656233 0.967143 10.410034 29.422015 -21.719684 0.000000 0.000000 0.000000 -7.125000 0.000000 0.000000 -18.429526 51.093421 2.849028 0.000000 0.000000 0.000000 -2.449269 4.392582 29.332293 -11.973589 -19.765065 -2.093351 -10.596702 27.436588 -11.926484 0.000000 0.000000 0.000000 7.125000 0.000000 0.000000 11.556209 17.992964 7.577303
0.204415 17.479808 0.483367 -1.482364 3.666284 5.266082 0.000000 0.000000 0.000000 -17.229954 -23.350935 1.292409 0.620687 5.041747 14.027648 0.344791 8.618660 -17.402444 0.833198 -5.823169 -16.272136 0.000000 0.000000 0.000000 19.341523 6.656319 5.359385 0.000000 0.000000 0.000000 -0.058772 -6.207076 -10.272768 -0.430444 4.210212 -11.668858 -1.409959 -0.114622 -4.052776 2.058189 -0.097080 -3.478774 2.904116 0.003695 -1.296746 -18.522918 -11.473338 -10.370520 17.471226 -16.994140 21.700609 6.964915 -7.696297 12.043398 0.000000 0.000000 0.000000 -1.969992 2.287706 -32.278307 7.959778 -13.487637 0.942735 10.678130 29.916465 -21.141790 0.000000 0.000000 0.000000 -7.125000 0.000000 0.000000 -17.910401 50.584593 2.535320 0.000000 0.000000 0.000000 -2.363238 4.302420 28.974632 -12.039101 -19.863252 -2.115563 -10.244578 27.982090 -12.055834 0.000000 0.000000 0.000000 7.125000 0.000000 0.000000 11.794444 17.883209 7.769541
0.205000 17.482744 0.470662 -1.549034 3.597183 5.417639 0.000000 0.000000 0.000000 -17.067330 -23.453702 0.993794 0.630838 5.082215 14.143066 0.270281 9.105810 -16.991755 1.204985 -6.962680 -19.605550 0.000000 0.000000 0.000000 19.381839 6.810461 5.146923 0.000000 0.000000 0.000000 -0.055595 -6.182916 -10.172193 -0.378403 3.950175 -10.936576 -1.318524 -0.131624 -4.053777 2.090661 -0.121491 -3.531084 2.885551 -0.008820 -1.348622 -18.530050 -11.411821 -10.337251 17.513625 -16.885830 21.508029 6.998753 -7.648585 11.943799 0.000000 0.000000 0.000000 -1.959798 2.333777 -32.310087 8.068283 -13.663500 0.968193 10.149004 30.045454 -21.484346 0.000000 0.000000 0.000000 -7.125000 0.000000 0.000000 -18.567346 50.827352 2.747527 0.000000 0.000000 0.000000 -2.382626 4.245809 28.809985 -12.006329 -19.814129 -2.104467 -10.420804 28.155177 -12.291125 0.000000 0.000000 0.000000 7.125000 0.000000 0.000000 11.663703 17.639960 7.743480
0.202569 17.483586 0.463364 -1.671876 3.606803 5.409331 0.000000 0.000000 0.000000 -16.890873 -23.356424 0.902390 0.634508 5.096664 14.184492 0.328330 8.705568 -17.290963 0.960077 -6.238990 -17.479346 0.000000 0.000000 0.000000 19.525013 6.814803 5.142205 0.000000 0.000000 0.000000 -0.057042 -6.152920 -10.167585 -0.402821 4.074323 -11.285827 -1.233951 -0.146502 -3.988935 2.147694 -0.143701 -3.502419 2.896152 -0.021191 -1.353935 -18.464444 -11.366043 -10.287242 17.490979 -16.793961 21.285063 6.990306 -7.608951 11.818257 0.000000 0.000000 0.000000 -1.967158 2.284769 -32.650068 7.994286 -13.543620 0.950750 11.133958 29.598218 -21.214323 0.000000 0.000000 0.000000 -7.125000 0.000000 0.000000 -17.510996 50.726212 2.537866 0.000000 0.000000 0.000000 -2.443440 4.171539 28.824627 -12.039322 -19.863533 -2.115628 -10.390689 27.999696 -12.127254 0.000000 0.000000 0.000000 7.125000 0.000000 0.000000 11.690736 17.804324 7.719026
0.201503 17.482807 0.457280 -1.568827 3.598318 5.394720 0.000000 0.000000 0.000000 -17.007326 -23.334701 0.952859 0.625504 5.060811 14.082075 0.326396 8.732916 -17.295314 0.977960 -6.295322 -17.643653 0.000000 0.000000 0.000000 19.420934 6.817632 5.130677 0.000000 0.000000 0.000000 -0.051707 -6.217744 -10.128211 -0.442686 4.269129 -11.835228 -1.305925 -0.174088 -3.855335 2.117415 -0.179448 -3.489297 2.904685 -0.037641 -1.412760 -18.398724 -11.321193 -10.363026 17.415085 -16.684317 21.160107 6.962689 -7.557980 11.746214 0.000000 0.000000 0.000000 -1.923017 2.241737 -32.840095 7.801830 -13.231174 0.906253 12.871716 29.241256 -20.597342 0.000000 0.000000 0.000000 -7.125000 0.000000 0.000000 -15.593546 50.404390 2.121922 0.000000 0.000000 0.000000 -2.480881 4.107591 28.851281 -12.040990 -19.866036 -2.116163 -10.615971 27.836596 -11.749160 0.000000 0.000000 0.000000 7.125000 0.000000 0.000000 11.549859 18.168254 7.527299
0.201563 17.485090 0.448268 -1.523704 3.546195 5.485804 0.000000 0.000000 0.000000 -17.009414 -23.376496 0.870846 0.619037 5.035223 14.009007 0.280239 9.019495 -17.024676 1.149145 -6.806808 -19.144232 0.000000 0.000000 0.000000 19.347676 6.905983 5.021877 0.000000 0.000000 0.000000 -0.049797 -6.218043 -10.086288 -0.415575 4.137964 -11.464977 -1.352813 -0.205992 -3.859175 2.130595 -0.220973 -3.480369 2.943627 -0.057576 -1.398866 -18.376871 -11.282811 -10.375209 17.366332 -16.581833 20.961594 6.951409 -7.515600 11.643079 0.000000 0.000000 0.000000 -1.883923 2.214157 -33.147782 7.955879 -13.481332 0.941875 11.611008 29.011133 -21.153610 0.000000 0.000000 0.000000 -7.125000 0.000000 0.000000 -17.031516 50.743177 2.473692 0.000000 0.000000 0.000000 -2.537789 4.032487 28.728897 -12.073340 -19.914548 -2.127184 -10.784141 27.756456 -11.920718 0.000000 0.000000 0.000000 7.125000 0.000000 0.000000 11.426717 17.988575 7.490010
